<svg xmlns="http://www.w3.org/2000/svg" version="1.1" xmlns:xlink="http://www.w3.org/1999/xlink" xmlns:svgjs="http://svgjs.dev/svgjs" width="2000" height="595" viewBox="0 0 2000 595"><g transform="matrix(1,0,0,1,-1.2121212121212466,-0.3176731174528413)"><svg viewBox="0 0 396 118" data-background-color="#051726" preserveAspectRatio="xMidYMid meet" height="595" width="2000" xmlns="http://www.w3.org/2000/svg" xmlns:xlink="http://www.w3.org/1999/xlink"><g id="tight-bounds" transform="matrix(1,0,0,1,0.2400000000000091,0.06300071909149096)"><svg viewBox="0 0 395.52 117.873998561817" height="117.873998561817" width="395.52"><g><svg viewBox="0 0 552.9330356620384 164.78668044702727" height="117.873998561817" width="395.52"><g transform="matrix(1,0,0,1,157.41303566203837,50.9214761198033)"><svg viewBox="0 0 395.52 62.943728207420655" height="62.943728207420655" width="395.52"><g id="textblocktransform"><svg viewBox="0 0 395.52 62.943728207420655" height="62.943728207420655" width="395.52" id="textblock"><g><svg viewBox="0 0 395.52 62.943728207420655" height="62.943728207420655" width="395.52"><g transform="matrix(1,0,0,1,0,0)"><svg width="395.52" viewBox="1.149999976158142 -35.599998474121094 223.69000244140625 35.599998474121094" height="62.943728207420655" data-palette-color="#ffffff"><path d="M23.4 0L21.05 0Q18.2 0 16.13-1.23 14.05-2.45 12.93-4.58 11.8-6.7 11.8-9.35L11.8-9.35 11.8-30.75 1.15-30.75 1.15-35 27.25-35 27.25-30.75 16.6-30.75 16.6-8.75Q16.6-6.8 17.82-5.53 19.05-4.25 21.1-4.25L21.1-4.25 23.4-4.25 23.4 0ZM37 0L32.2 0 32.2-35 37-35 37-19.95 55.45-19.95 55.45-35 60.25-35 60.25 0 55.45 0 55.45-15.7 37-15.7 37 0ZM72.64 0L67.84 0 67.84-35 83.2-35Q86.5-35 89.2-33.58 91.9-32.15 93.5-29.58 95.09-27 95.09-23.55L95.09-23.55Q95.09-20.05 93.32-17.38 91.55-14.7 88.55-13.4L88.55-13.4 92.3-5.8Q92.7-5 93.17-4.63 93.65-4.25 94.55-4.25L94.55-4.25 97.05-4.25 97.05 0 93.8 0Q91.84 0 90.37-1 88.9-2 87.95-3.7L87.95-3.7 83.75-12.25Q83.25-12.2 82.67-12.18 82.09-12.15 81.5-12.15L81.5-12.15 72.64-12.15 72.64 0ZM72.64-30.75L72.64-16.4 82.55-16.4Q84.7-16.4 86.47-17.25 88.25-18.1 89.27-19.7 90.3-21.3 90.3-23.55L90.3-23.55Q90.3-25.85 89.25-27.45 88.2-29.05 86.45-29.9 84.7-30.75 82.59-30.75L82.59-30.75 72.64-30.75ZM123.89 0L110.19 0Q107.29 0 105.07-1.38 102.84-2.75 101.59-5 100.34-7.25 100.34-9.9L100.34-9.9Q100.34-12.3 101.47-14.4 102.59-16.5 104.74-17.7L104.74-17.7Q102.64-19.05 101.54-21.05 100.44-23.05 100.44-25.25L100.44-25.25Q100.44-27.95 101.72-30.15 102.99-32.35 105.19-33.68 107.39-35 110.04-35L110.04-35 123.89-35 123.89-30.75 110.59-30.75Q109.04-30.75 107.84-30 106.64-29.25 105.94-28.03 105.24-26.8 105.24-25.25L105.24-25.25Q105.24-23.8 105.97-22.6 106.69-21.4 107.94-20.68 109.19-19.95 110.69-19.95L110.69-19.95 122.04-19.95 122.04-15.7 111.04-15.7Q109.19-15.7 107.87-14.88 106.54-14.05 105.82-12.73 105.09-11.4 105.09-9.9L105.09-9.9Q105.09-8.4 105.79-7.1 106.49-5.8 107.79-5.03 109.09-4.25 110.84-4.25L110.84-4.25 123.89-4.25 123.89 0ZM131.24 0L126.19 0 138.09-31.65Q138.89-33.7 140.29-34.65 141.69-35.6 143.54-35.6L143.54-35.6Q145.39-35.6 146.81-34.68 148.24-33.75 148.99-31.7L148.99-31.7 160.94 0 155.69 0 152.64-8.45 134.34-8.45 131.24 0ZM142.24-30.05L135.84-12.7 151.19-12.7 144.94-30.05Q144.69-30.7 144.39-31.05 144.09-31.4 143.54-31.4L143.54-31.4Q143.04-31.4 142.74-31.05 142.44-30.7 142.24-30.05L142.24-30.05ZM175.29 0L164.09 0 164.09-35 175.29-35Q180.89-35 184.96-32.75 189.04-30.5 191.29-26.55 193.54-22.6 193.54-17.5L193.54-17.5Q193.54-12.4 191.29-8.45 189.04-4.5 184.96-2.25 180.89 0 175.29 0L175.29 0ZM168.89-30.75L168.89-4.25 175.34-4.25Q179.24-4.25 182.26-5.85 185.29-7.45 187.04-10.43 188.79-13.4 188.79-17.5L188.79-17.5Q188.79-21.65 187.04-24.6 185.29-27.55 182.26-29.15 179.24-30.75 175.34-30.75L175.34-30.75 168.89-30.75ZM214.99 0L199.29 0 199.29-4.25 214.44-4.25Q216.19-4.25 217.44-5.08 218.69-5.9 219.39-7.2 220.09-8.5 220.09-9.95L220.09-9.95Q220.09-11.45 219.41-12.73 218.74-14 217.51-14.78 216.29-15.55 214.54-15.55L214.54-15.55 207.94-15.55Q204.99-15.55 202.74-16.78 200.49-18 199.21-20.18 197.94-22.35 197.94-25.1L197.94-25.1Q197.94-27.9 199.16-30.15 200.39-32.4 202.61-33.7 204.84-35 207.74-35L207.74-35 222.59-35 222.59-30.75 208.19-30.75Q206.54-30.75 205.29-29.98 204.04-29.2 203.39-27.98 202.74-26.75 202.74-25.35L202.74-25.35Q202.74-24 203.36-22.78 203.99-21.55 205.21-20.8 206.44-20.05 208.04-20.05L208.04-20.05 214.79-20.05Q217.94-20.05 220.19-18.8 222.44-17.55 223.64-15.4 224.84-13.25 224.84-10.5L224.84-10.5Q224.84-7.45 223.61-5.08 222.39-2.7 220.14-1.35 217.89 0 214.99 0L214.99 0Z" opacity="1" transform="matrix(1,0,0,1,0,0)" fill="#ffffff" class="wordmark-text-0" data-fill-palette-color="primary" id="text-0"></path></svg></g></svg></g></svg></g></svg></g><g><svg viewBox="0 0 142.55353208174333 164.78668044702727" height="164.78668044702727" width="142.55353208174333"><g><svg xmlns="http://www.w3.org/2000/svg" xmlns:xlink="http://www.w3.org/1999/xlink" version="1.1" x="0" y="0" viewBox="17.299999237060547 12.199999809265137 65.39999389648438 75.60000610351562" style="enable-background:new 0 0 100 100;" xml:space="preserve" height="164.78668044702727" width="142.55353208174333" class="icon-icon-0" data-fill-palette-color="accent" id="icon-0"><path d="M50 12.2L17.3 31.1v37.8L50 87.8l32.7-18.9V31.1L50 12.2zM32.1 37.4L50 16l17 21.4H32.1zM67.3 39.4L50 70.4l-18.2-31H67.3zM48.1 71l-27.7-4.5 9.8-25.9L48.1 71zM68.9 40.7l10.7 25.9-27.7 4.5L68.9 40.7zM69.2 37.1L52.6 16l27 15.6L69.2 37.1zM29.8 37.1l-9.4-5.5 26.8-15.5L29.8 37.1zM28.8 38.8l-9.5 25V33.3L28.8 38.8zM49 73.2v11.7L20.9 68.7 49 73.2zM51 73.2l28.1-4.5L51 84.9V73.2zM70.3 38.8l10.5-5.6v30.9L70.3 38.8z" fill="#81ffd9" data-fill-palette-color="accent"></path></svg></g></svg></g></svg></g><defs></defs></svg><rect width="395.52" height="117.873998561817" fill="none" stroke="none" visibility="hidden"></rect></g></svg></g></svg>